# xmcd
#
# Track frame offsets: 
#        150
#        10990
#        20782
#        33987
#        45215
#        57057
#        67627
#        78387
#        89722
#        100660
#        111872
#        123480
#        133157
#        143360
#        157832
#        168950
#
# Disc length: 2370 seconds
#
# Revision: 2
# Processed by: cddbd v1.5.2PL0 Copyright (c) Steve Scherf et al.
# Submitted via: ExactAudioCopy v1.0b3
#
DISCID=bf094010
DTITLE=Locklin, Hank - RCA Country Legends
DYEAR=2003
DGENRE=Country
TTITLE0=Why Baby Why
TTITLE1=Geisha Girl
TTITLE2=Livin' Alone
TTITLE3=Send Me The Pillow That You Dream On
TTITLE4=It's A Little More Like Heaven
TTITLE5=Blue Grass Skirt
TTITLE6=Please Help Me, I'm Falling
TTITLE7=One Step Ahead Of My Past
TTITLE8=From Here To There To You
TTITLE9=Happy Birthday To Me
TTITLE10=Happy Journey
TTITLE11=We're Gonna Go Fishin'
TTITLE12=Followed Closely By My Teardrops
TTITLE13=The Country Hall Of Fame
TTITLE14=Danny Boy
TTITLE15=Bonaparte's Retreat
EXTD=
EXTT0=
EXTT1=
EXTT2=
EXTT3=
EXTT4=
EXTT5=
EXTT6=
EXTT7=
EXTT8=
EXTT9=
EXTT10=
EXTT11=
EXTT12=
EXTT13=
EXTT14=
EXTT15=
PLAYORDER=
